# xmcd
#
# Track frame offsets:
#	150
#	17429
#	45611
#	80128
#	98890
#
# Disc length: 1759 seconds
#
# Revision: 1
# Processed by: cddbd v1.5.1PL2 Copyright (c) Steve Scherf et al.
# Submitted via: audiograbber 1.82.02
#
DISCID=3306dd05
DTITLE=Carl Cox - That¨'s The Bass CDM
DYEAR=2006
DGENRE=House
TTITLE0=That¨'s The Bass (Cox's Rock Drums Mix)
TTITLE1=That¨'s The Bass (Touché Remix)
TTITLE2=That¨'s The Bass (Tim DeLuxe Remix)
TTITLE3=That¨'s The Bass (Norman's House Mix)
TTITLE4=That¨'s The Bass (Sequence II AKA Sterbinszky Remix)
EXTD=
EXTT0=
EXTT1=
EXTT2=
EXTT3=
EXTT4=
PLAYORDER=
